<?xml version="1.0" encoding="UTF-8" standalone="no"?><!DOCTYPE svg PUBLIC "-//W3C//DTD SVG 1.1//EN" "http://www.w3.org/Graphics/SVG/1.1/DTD/svg11.dtd"><svg width="100%" height="100%" viewBox="0 0 100 100" version="1.1" xmlns="http://www.w3.org/2000/svg" xmlns:xlink="http://www.w3.org/1999/xlink" xml:space="preserve" xmlns:serif="http://www.serif.com/" style="fill-rule:evenodd;clip-rule:evenodd;stroke-linejoin:round;stroke-miterlimit:2;"><path d="M37.921,98.713l0,-33.25l-10.308,0l0,-15.279l10.308,0l0,-6.583c0,-17.021 7.7,-24.908 24.408,-24.908c1.671,0 3.979,0.175 6.117,0.429c1.601,0.165 3.189,0.436 4.754,0.812l0,13.854c-0.905,-0.084 -1.812,-0.134 -2.721,-0.15c-1.018,-0.026 -2.036,-0.039 -3.054,-0.038c-2.946,0 -5.246,0.4 -6.979,1.288c-1.165,0.585 -2.145,1.482 -2.829,2.592c-1.075,1.75 -1.558,4.146 -1.558,7.3l0,5.404l16.329,0l-1.608,8.763l-1.196,6.517l-13.525,0l0,34.354c24.758,-2.992 43.942,-24.071 43.942,-49.633c0,-27.613 -22.388,-50 -50,-50c-27.612,-0 -50,22.387 -50,50c0,23.45 16.142,43.125 37.921,48.529Z" style="fill:#1d2523;fill-rule:nonzero;"/></svg>