<?xml version="1.0" encoding="UTF-8" standalone="no"?><!DOCTYPE svg PUBLIC "-//W3C//DTD SVG 1.1//EN" "http://www.w3.org/Graphics/SVG/1.1/DTD/svg11.dtd"><svg width="100%" height="100%" viewBox="0 0 100 100" version="1.1" xmlns="http://www.w3.org/2000/svg" xmlns:xlink="http://www.w3.org/1999/xlink" xml:space="preserve" xmlns:serif="http://www.serif.com/" style="fill-rule:evenodd;clip-rule:evenodd;stroke-linejoin:round;stroke-miterlimit:2;"><path d="M29.292,0.35c-5.32,0.251 -8.953,1.1 -12.129,2.348c-3.287,1.281 -6.073,3 -8.845,5.782c-2.772,2.782 -4.479,5.57 -5.751,8.863c-1.231,3.182 -2.065,6.819 -2.3,12.142c-0.235,5.323 -0.287,7.034 -0.261,20.613c0.026,13.577 0.086,15.28 0.344,20.614c0.254,5.319 1.1,8.951 2.348,12.128c1.283,3.287 3,6.072 5.783,8.845c2.783,2.773 5.569,4.476 8.869,5.75c3.18,1.229 6.817,2.067 12.139,2.3c5.322,0.233 7.035,0.288 20.609,0.261c13.574,-0.026 15.283,-0.086 20.616,-0.339c5.333,-0.253 8.946,-1.105 12.124,-2.347c3.287,-1.286 6.074,-3 8.845,-5.784c2.771,-2.784 4.477,-5.574 5.748,-8.868c1.232,-3.18 2.069,-6.817 2.3,-12.135c0.233,-5.337 0.288,-7.041 0.262,-20.617c-0.026,-13.576 -0.088,-15.278 -0.34,-20.61c-0.253,-5.332 -1.1,-8.953 -2.347,-12.132c-1.285,-3.287 -3,-6.07 -5.782,-8.845c-2.782,-2.775 -5.575,-4.48 -8.867,-5.748c-3.183,-1.231 -6.817,-2.07 -12.139,-2.3c-5.322,-0.23 -7.035,-0.29 -20.614,-0.263c-13.579,0.026 -15.279,0.084 -20.612,0.344m0.584,90.388c-4.875,-0.212 -7.522,-1.022 -9.286,-1.7c-2.336,-0.9 -4,-1.988 -5.758,-3.729c-1.758,-1.741 -2.838,-3.411 -3.75,-5.742c-0.685,-1.764 -1.51,-4.408 -1.738,-9.283c-0.248,-5.269 -0.3,-6.851 -0.329,-20.2c-0.029,-13.349 0.022,-14.929 0.253,-20.2c0.208,-4.871 1.023,-7.521 1.7,-9.284c0.9,-2.339 1.984,-4 3.729,-5.757c1.745,-1.757 3.41,-2.839 5.743,-3.751c1.762,-0.688 4.406,-1.506 9.279,-1.738c5.273,-0.25 6.853,-0.3 20.2,-0.329c13.347,-0.029 14.931,0.021 20.206,0.253c4.871,0.212 7.522,1.019 9.283,1.7c2.337,0.9 4,1.981 5.757,3.729c1.757,1.748 2.84,3.407 3.752,5.745c0.689,1.757 1.507,4.4 1.737,9.276c0.251,5.273 0.308,6.854 0.332,20.2c0.024,13.346 -0.023,14.931 -0.254,20.2c-0.212,4.875 -1.021,7.523 -1.7,9.289c-0.9,2.335 -1.985,4 -3.731,5.756c-1.746,1.756 -3.409,2.838 -5.743,3.75c-1.76,0.687 -4.407,1.507 -9.276,1.739c-5.273,0.248 -6.853,0.3 -20.205,0.329c-13.352,0.029 -14.927,-0.025 -20.2,-0.253m40.76,-67.461c0.005,3.288 2.712,5.99 6,5.99c3.292,0 6,-2.708 6,-6c0,-3.292 -2.708,-6 -6,-6c-0.004,0 -0.008,0 -0.012,0c-3.291,0.007 -5.993,2.719 -5.987,6.01m-46.31,26.773c0.028,14.18 11.544,25.649 25.721,25.622c14.178,-0.027 25.654,-11.542 25.627,-25.722c-0.027,-14.18 -11.546,-25.652 -25.725,-25.624c-14.179,0.028 -25.65,11.546 -25.623,25.724m9.006,-0.018c-0,-0.011 -0,-0.022 -0,-0.033c0,-9.143 7.524,-16.667 16.667,-16.667c9.143,0 16.667,7.524 16.667,16.667c0,9.13 -7.503,16.648 -16.633,16.667c-0.012,0 -0.023,0 -0.035,0c-9.13,0 -16.648,-7.503 -16.665,-16.634" style="fill:#1d2523;fill-rule:nonzero;"/></svg>