<?xml version="1.0" encoding="UTF-8" standalone="no"?><!DOCTYPE svg PUBLIC "-//W3C//DTD SVG 1.1//EN" "http://www.w3.org/Graphics/SVG/1.1/DTD/svg11.dtd"><svg width="100%" height="100%" viewBox="0 0 100 100" version="1.1" xmlns="http://www.w3.org/2000/svg" xmlns:xlink="http://www.w3.org/1999/xlink" xml:space="preserve" xmlns:serif="http://www.serif.com/" style="fill-rule:evenodd;clip-rule:evenodd;stroke-linejoin:round;stroke-miterlimit:2;"><path d="M52.188,0.083c5.458,-0.083 10.875,-0.042 16.292,-0.083c0.333,6.375 2.625,12.875 7.292,17.375c4.667,4.625 11.25,6.75 17.667,7.458l0,16.792c-6,-0.208 -12.042,-1.458 -17.5,-4.042c-2.375,-1.083 -4.583,-2.458 -6.75,-3.875c-0.042,12.167 0.042,24.333 -0.083,36.458c-0.333,5.833 -2.25,11.625 -5.625,16.417c-5.458,8 -14.917,13.208 -24.625,13.375c-5.958,0.333 -11.917,-1.292 -17,-4.292c-8.417,-4.958 -14.333,-14.042 -15.208,-23.792c-0.083,-2.083 -0.125,-4.167 -0.042,-6.208c0.75,-7.917 4.667,-15.5 10.75,-20.667c6.917,-6 16.583,-8.875 25.625,-7.167c0.083,6.167 -0.167,12.333 -0.167,18.5c-4.125,-1.333 -8.958,-0.958 -12.583,1.542c-2.625,1.708 -4.625,4.333 -5.667,7.292c-0.875,2.125 -0.625,4.458 -0.583,6.708c1,6.833 7.583,12.583 14.583,11.958c4.667,-0.042 9.125,-2.75 11.542,-6.708c0.792,-1.375 1.667,-2.792 1.708,-4.417c0.417,-7.458 0.25,-14.875 0.292,-22.333c0.042,-16.792 -0.042,-33.542 0.083,-50.292Z" style="fill:#1d2523;fill-rule:nonzero;"/></svg>