<?xml version="1.0" encoding="UTF-8" standalone="no"?><!DOCTYPE svg PUBLIC "-//W3C//DTD SVG 1.1//EN" "http://www.w3.org/Graphics/SVG/1.1/DTD/svg11.dtd"><svg width="100%" height="100%" viewBox="0 0 100 100" version="1.1" xmlns="http://www.w3.org/2000/svg" xmlns:xlink="http://www.w3.org/1999/xlink" xml:space="preserve" xmlns:serif="http://www.serif.com/" style="fill-rule:evenodd;clip-rule:evenodd;stroke-linejoin:round;stroke-miterlimit:2;"><path d="M97.908,25.775c-1.148,-4.325 -4.524,-7.723 -8.842,-8.9c-7.796,-2.104 -39.067,-2.104 -39.067,-2.104c0,0 -31.271,0 -39.071,2.104c-4.316,1.179 -7.689,4.576 -8.838,8.9c-2.092,7.85 -2.092,24.225 -2.092,24.225c0,0 0,16.375 2.092,24.225c1.148,4.325 4.524,7.723 8.842,8.9c7.796,2.104 39.067,2.104 39.067,2.104c0,0 31.271,0 39.071,-2.104c4.318,-1.176 7.694,-4.574 8.842,-8.9c2.087,-7.85 2.087,-24.225 2.087,-24.225c0,0 0,-16.375 -2.092,-24.225Zm-58.138,39.092l0,-29.733l26.137,14.867l-26.137,14.867Z" style="fill:#e7cd8a;fill-rule:nonzero;"/></svg>